<svg xmlns="http://www.w3.org/2000/svg" viewBox="0 0 24 24" fill="#e150fd" xmlns:v="https://vecta.io/nano"><path d="M12 22.8C6.1 22.8 1.2 18 1.2 12S6.1 1.2 12 1.2 22.8 6.1 22.8 12 17.9 22.8 12 22.8zm0-20c-5.1 0-9.2 4.1-9.2 9.2s4.1 9.2 9.2 9.2 9.2-4.1 9.2-9.2-4.1-9.2-9.2-9.2zm-.9 13c-.3 0-.6-.1-.9-.2a1.78 1.78 0 0 1-1-1.6v-3.9a1.78 1.78 0 0 1 1-1.6c.6-.3 1.3-.3 1.9.1l2.9 1.9c.5.3.8.9.8 1.5s-.3 1.2-.8 1.5l-2.9 1.9c-.3.3-.6.4-1 .4zm0-6.1h-.2c-.1 0-.2.1-.2.3v3.9c0 .2.1.3.2.3s.2.1.4 0l2.9-1.9c.1-.1.2-.2.2-.3s0-.2-.2-.3l-2.9-1.9c-.1-.1-.1-.1-.2-.1z"/></svg>